<?xml version="1.0" standalone="no"?>
<!DOCTYPE svg PUBLIC "-//W3C//DTD SVG 20010904//EN"
 "http://www.w3.org/TR/2001/REC-SVG-20010904/DTD/svg10.dtd">
<svg version="1.0" xmlns="http://www.w3.org/2000/svg"
 width="1103.000000pt" height="1103.000000pt" viewBox="0 0 1103.000000 1103.000000"
 preserveAspectRatio="xMidYMid meet">
<metadata>
Created by potrace 1.11, written by Peter Selinger 2001-2013
</metadata>
<g transform="translate(0.000000,1103.000000) scale(0.100000,-0.100000)"
fill="#000000" stroke="none">
<path d="M1879 10776 c-25 -25 -42 -68 -54 -133 -13 -79 -6 -378 11 -468 2
-11 6 -38 9 -60 8 -59 60 -251 94 -344 53 -143 63 -156 138 -192 254 -118 667
-270 693 -254 5 3 89 30 186 59 l176 53 -84 51 c-246 149 -506 368 -670 565
-157 189 -267 414 -292 594 -13 101 -51 144 -129 151 -46 4 -55 1 -78 -22z"/>
<path d="M600 10707 c-45 -23 -62 -74 -65 -202 -8 -388 129 -812 374 -1158
115 -162 297 -354 461 -487 30 -25 57 -47 60 -50 10 -11 187 -137 255 -181
272 -178 652 -359 970 -464 250 -82 278 -89 370 -89 111 0 140 6 224 47 89 43
204 157 253 252 118 228 91 460 -66 559 -16 10 -103 36 -195 57 -91 22 -173
42 -181 44 -8 2 -35 9 -60 15 -68 16 -270 76 -410 122 -372 121 -815 327
-1047 488 -32 22 -67 46 -77 53 -11 6 -63 47 -116 89 -293 233 -492 505 -551
756 -11 47 -28 96 -36 109 -32 48 -109 67 -163 40z"/>
<path d="M5048 9705 c-2 -1 -57 -5 -123 -9 -66 -3 -129 -8 -140 -10 -11 -2
-51 -7 -88 -11 -37 -3 -76 -8 -86 -10 -10 -2 -42 -6 -72 -10 -30 -4 -73 -11
-97 -16 -23 -5 -59 -12 -78 -15 -49 -8 -129 -25 -234 -50 -20 -5 -6 -12 67
-33 123 -37 278 -116 387 -197 l89 -66 96 11 c153 18 263 24 466 24 168 1 391
-8 442 -17 10 -2 50 -7 88 -11 39 -4 77 -8 85 -10 8 -2 35 -6 60 -9 121 -17
344 -64 495 -106 993 -273 1840 -887 2423 -1755 93 -140 173 -273 238 -401
l47 -91 76 18 c91 21 161 30 256 34 85 4 84 -2 7 150 -161 318 -385 659 -596
910 -154 184 -390 423 -546 556 -47 39 -97 82 -112 94 -14 13 -61 49 -105 81
-43 32 -80 61 -83 64 -13 16 -309 206 -430 276 -134 77 -376 197 -474 236 -28
11 -64 26 -81 34 -145 67 -576 198 -805 243 -30 6 -66 14 -80 16 -31 7 -191
33 -245 40 -76 11 -100 14 -170 20 -38 3 -86 8 -105 11 -36 6 -566 14 -572 9z"/>
<path d="M3688 9405 c-2 -1 -39 -5 -83 -9 -166 -12 -205 -19 -401 -67 -225
-54 -257 -64 -234 -73 21 -7 274 -71 403 -101 145 -33 233 -90 304 -196 61
-92 84 -169 88 -287 9 -341 -222 -667 -545 -767 -32 -10 -100 -18 -165 -20
-188 -7 -223 6 -768 280 -378 191 -471 234 -486 226 -25 -14 -49 -68 -67 -153
-18 -85 -35 -128 -60 -149 -11 -9 -59 -37 -109 -64 -264 -140 -495 -312 -720
-539 -130 -131 -153 -157 -238 -268 -232 -302 -398 -627 -491 -959 -60 -218
-75 -320 -67 -471 3 -73 76 -47 237 85 449 366 566 450 744 536 295 143 518
118 676 -74 74 -90 54 -199 -63 -353 -119 -156 -196 -288 -273 -467 -126 -296
-200 -779 -167 -1100 22 -212 60 -290 122 -249 14 9 59 63 100 119 192 263
413 443 756 614 187 94 309 142 444 176 417 106 640 -89 475 -415 -17 -33 -46
-85 -66 -116 -74 -115 -129 -280 -151 -449 -8 -69 -8 -257 1 -334 26 -234 105
-398 161 -340 7 8 32 70 55 139 129 390 358 689 740 967 204 148 391 191 506
117 95 -61 127 -180 99 -364 -26 -171 -13 -356 35 -502 51 -152 170 -347 216
-354 17 -3 49 59 59 115 19 110 89 340 153 501 193 492 525 890 925 1110 75
41 95 60 60 58 -10 -1 -49 2 -86 6 -65 7 -80 9 -137 21 -14 2 -41 7 -60 10
-215 35 -385 108 -508 219 -108 98 -199 282 -149 302 8 3 64 -29 126 -70 165
-112 319 -180 521 -231 106 -27 301 -61 400 -70 36 -3 90 -8 120 -11 51 -5
375 -12 640 -14 221 -2 301 34 376 165 34 60 123 195 141 213 32 33 100 45
153 28 69 -23 123 -125 145 -271 12 -86 17 -101 40 -131 45 -59 81 -74 380
-160 413 -120 1000 -393 1444 -673 76 -48 254 -140 356 -183 22 -10 139 -51
260 -91 121 -41 234 -80 250 -86 82 -33 233 -63 310 -63 201 3 309 100 355
318 20 99 21 358 1 489 -6 39 -13 88 -16 110 -29 184 -111 544 -152 665 -39
113 -127 290 -200 398 -349 519 -816 749 -1333 657 -19 -3 -57 -12 -83 -20
-50 -15 -132 -31 -202 -40 -22 -3 -56 -7 -75 -10 -44 -6 -221 -6 -277 0 -191
21 -412 101 -593 215 -255 159 -457 349 -905 846 -271 301 -523 550 -710 700
-300 242 -645 404 -964 454 -36 6 -77 13 -91 16 -14 3 -115 8 -225 9 -258 5
-284 9 -383 55 -65 31 -178 111 -212 151 -14 17 -154 112 -216 146 -56 32
-177 82 -214 88 -3 1 -14 4 -25 8 -26 9 -72 15 -155 22 -74 7 -248 13 -252 10z
m1367 -1219 c249 -24 535 -100 741 -195 232 -109 329 -217 309 -347 -6 -40
-16 -56 -63 -103 -85 -84 -200 -114 -312 -81 -44 13 -47 13 -47 -2 0 -7 -3
-32 -6 -54 -37 -253 -179 -434 -398 -508 -65 -22 -89 -25 -165 -21 -102 4
-126 8 -203 35 -152 54 -284 193 -356 375 -15 39 -29 71 -30 73 -2 2 -13 -2
-26 -8 -34 -19 -142 -21 -197 -5 -90 27 -172 112 -234 242 -73 153 -70 263 9
381 35 51 153 142 185 142 8 0 18 4 24 9 16 17 165 50 279 64 114 13 367 15
490 3z m4700 -2051 c51 -10 130 -52 179 -96 50 -45 159 -201 194 -279 91 -199
64 -343 -72 -395 -59 -23 -101 -10 -197 59 -126 91 -249 145 -369 161 -61 9
-128 39 -157 73 -145 161 -19 435 220 481 42 9 147 6 202 -4z"/>
<path d="M4520 8040 c-240 -39 -350 -110 -364 -235 -13 -106 86 -293 173 -327
36 -14 98 -12 147 5 22 8 110 49 195 90 204 99 274 124 434 152 40 7 204 7
235 0 14 -3 39 -7 55 -10 17 -2 39 -6 50 -9 34 -7 199 -68 210 -76 22 -17 153
-51 186 -47 44 5 92 30 117 62 17 22 19 31 10 56 -30 86 -277 208 -580 288
-62 16 -130 32 -150 35 -21 3 -53 8 -70 11 -181 29 -486 31 -648 5z"/>
<path d="M4995 7541 c-184 -46 -241 -275 -99 -400 72 -63 168 -75 258 -32 l46
23 -42 22 c-126 66 -98 257 41 279 45 8 47 11 14 45 -53 56 -143 82 -218 63z"/>
<path d="M9570 6015 c-69 -18 -108 -42 -139 -85 -35 -49 -45 -97 -31 -149 12
-46 42 -63 139 -81 79 -14 207 -60 270 -96 25 -15 79 -51 120 -80 78 -57 97
-59 122 -12 14 27 6 113 -15 153 -9 17 -16 33 -16 37 0 13 -75 134 -118 191
-65 85 -136 125 -238 131 -27 1 -69 -3 -94 -9z"/>
<path d="M1082 6235 c-93 -43 -297 -182 -374 -255 -38 -35 -41 -44 -63 -180
-3 -19 -10 -60 -15 -90 -5 -30 -12 -82 -16 -115 -3 -33 -8 -73 -10 -90 -26
-222 -26 -760 1 -960 2 -16 6 -55 9 -85 3 -30 8 -64 10 -75 2 -11 7 -40 10
-65 12 -88 35 -207 76 -390 16 -74 71 -262 105 -361 19 -57 37 -111 39 -119 2
-8 18 -51 36 -95 171 -429 370 -789 628 -1135 47 -63 88 -117 92 -120 3 -3 41
-48 85 -100 339 -403 803 -790 1235 -1032 25 -14 63 -35 85 -48 76 -43 290
-148 390 -190 161 -68 432 -167 505 -184 8 -2 41 -11 72 -21 32 -9 59 -16 60
-15 2 0 27 -7 57 -16 30 -9 62 -17 70 -19 9 -2 59 -13 111 -24 107 -23 277
-52 375 -65 150 -19 155 -20 355 -31 211 -13 512 -8 680 11 25 2 65 7 90 10
723 79 1482 355 2070 753 121 82 185 126 190 131 3 3 43 34 90 70 47 35 87 66
90 69 3 4 32 29 65 56 197 164 448 421 616 630 131 164 292 392 356 505 11 19
44 76 73 125 62 108 133 246 128 251 -2 2 -28 0 -57 -5 -89 -14 -332 -4 -362
15 -4 2 -33 -40 -65 -93 -81 -138 -188 -301 -277 -420 -79 -106 -82 -110 -186
-232 -68 -81 -331 -346 -417 -421 -28 -25 -64 -57 -81 -71 -58 -51 -269 -208
-373 -276 -263 -175 -474 -287 -784 -414 -154 -64 -461 -163 -567 -184 -8 -2
-44 -10 -80 -19 -61 -14 -140 -30 -205 -42 -16 -3 -40 -7 -54 -10 -14 -2 -43
-6 -65 -9 -22 -3 -58 -8 -80 -11 -22 -3 -51 -7 -65 -9 -201 -27 -758 -27 -950
0 -14 2 -50 6 -80 10 -30 3 -77 10 -105 15 -27 5 -66 12 -85 14 -48 8 -92 16
-110 21 -8 2 -31 7 -50 10 -62 10 -301 75 -430 117 -1075 349 -1987 1133
-2496 2148 -139 278 -214 471 -313 810 -17 58 -35 119 -40 135 -9 31 -24 99
-37 170 -4 22 -8 42 -9 45 -1 3 -5 39 -10 80 -5 41 -9 77 -10 80 -1 3 -4 34
-9 70 -4 36 -9 79 -11 95 -26 201 -25 675 0 885 3 19 7 58 10 85 3 28 8 61 10
75 6 35 27 161 30 185 16 95 30 153 86 336 16 53 29 99 29 103 0 12 -25 6 -78
-19z"/>
<path d="M6370 5170 c-87 -16 -95 -18 -159 -35 -172 -45 -411 -162 -530 -260
-267 -219 -436 -447 -576 -775 -80 -185 -164 -479 -200 -692 -30 -177 -42
-210 -88 -238 -65 -40 -153 -3 -268 113 -43 44 -79 83 -79 87 0 4 -11 20 -24
35 -53 61 -142 270 -163 380 -4 22 -8 42 -8 45 -12 48 -21 141 -25 250 l-2 45
-14 -65 c-21 -96 -45 -231 -58 -320 -13 -98 -19 -137 -22 -152 -1 -9 -6 -48
-9 -85 -4 -37 -8 -79 -10 -93 -2 -14 -6 -65 -10 -115 -3 -49 -8 -115 -11 -145
-6 -68 -6 -488 0 -590 7 -103 21 -245 33 -335 2 -22 6 -51 8 -65 4 -26 35
-208 39 -225 2 -5 6 -28 10 -50 5 -22 15 -67 23 -100 8 -33 16 -64 17 -70 22
-96 109 -359 148 -445 11 -25 27 -63 34 -84 20 -55 29 -63 82 -72 26 -4 52 -8
57 -9 15 -4 153 -24 200 -30 22 -3 56 -7 75 -9 204 -27 642 -27 840 -1 14 2
52 6 85 10 33 3 67 8 75 10 8 2 35 7 60 10 25 3 77 13 116 21 39 8 77 17 85
18 69 14 89 19 89 26 0 5 -4 10 -8 12 -16 7 -136 173 -198 275 -35 58 -86 152
-113 208 l-49 103 -79 7 c-43 5 -91 9 -108 11 -44 5 -434 5 -475 -1 -106 -13
-293 -4 -305 15 -13 21 127 77 263 105 158 33 332 50 500 50 72 -1 132 0 132
1 0 1 -15 58 -34 127 -19 68 -37 140 -40 158 -3 19 -8 45 -11 59 -3 14 -8 41
-11 60 -3 19 -7 45 -9 58 -2 13 -7 53 -10 90 -3 37 -8 81 -10 97 -3 17 -5 60
-6 97 -1 63 -3 67 -28 73 -14 4 -26 6 -26 6 0 -1 -22 5 -50 13 -59 17 -230 52
-300 61 -131 17 -186 28 -258 51 -117 39 12 81 238 79 136 -2 195 -7 334 -30
47 -8 86 -14 87 -12 1 1 5 45 9 97 3 52 8 109 10 125 2 17 7 53 10 80 12 94
17 120 42 240 31 150 28 135 53 230 12 43 23 82 26 86 6 10 -58 34 -172 64
-147 39 -283 86 -307 106 l-22 18 25 9 c55 21 289 -2 454 -44 32 -8 60 -13 62
-11 2 2 19 46 38 98 78 215 174 421 228 492 90 115 200 197 309 229 62 19 100
22 234 23 170 0 209 -4 375 -36 206 -41 660 -173 785 -229 11 -5 58 -23 105
-40 47 -17 94 -35 105 -40 11 -5 90 -38 175 -74 206 -85 382 -166 629 -289
219 -109 274 -150 311 -232 39 -86 28 -141 -55 -281 -98 -164 -119 -247 -82
-316 36 -67 139 -97 314 -92 112 3 116 3 213 28 225 58 439 246 531 469 61
145 130 379 117 393 -3 3 -61 23 -129 46 -133 43 -259 88 -324 116 -76 32
-284 140 -337 174 -50 33 -158 98 -273 163 -311 179 -768 382 -1073 479 -129
40 -359 90 -539 116 -43 6 -91 13 -108 15 -16 3 -82 7 -145 11 -63 3 -133 7
-155 9 -87 9 -643 14 -685 5z"/>
<path d="M2703 4926 c-121 -38 -294 -164 -473 -345 -153 -155 -184 -188 -222
-246 -53 -77 -48 -89 190 -428 168 -239 202 -296 194 -317 -33 -90 -345 -505
-462 -613 l-52 -48 38 -62 c212 -346 581 -741 959 -1029 58 -44 272 -188 350
-235 245 -148 587 -300 864 -382 53 -16 105 -33 115 -37 16 -6 18 -4 12 12
-85 209 -174 504 -211 699 -34 178 -52 306 -69 481 -23 229 -24 760 -2 939 2
17 7 66 11 110 3 44 8 91 10 105 2 14 6 48 10 75 11 100 16 132 36 250 22 130
88 456 95 466 2 4 6 23 10 44 3 20 12 57 19 81 13 44 13 45 -8 38 -53 -16
-199 -99 -278 -158 -290 -219 -506 -535 -637 -931 -16 -50 -33 -106 -37 -125
-10 -45 -47 -120 -72 -142 -73 -67 -224 120 -316 392 -65 189 -82 295 -81 485
1 241 60 430 204 660 55 88 85 173 76 211 -14 55 -166 83 -273 50z"/>
</g>
</svg>
